<?xml version="1.0" encoding="utf-8" ?>
<svg baseProfile="full" height="400" version="1.1" width="600" xmlns="http://www.w3.org/2000/svg" xmlns:ev="http://www.w3.org/2001/xml-events" xmlns:xlink="http://www.w3.org/1999/xlink"><defs /><path d="M 412,327 L 412,328 L 411,329 L 410,328 L 409,328 L 410,329 L 410,331 L 410,330 L 411,329 L 412,330 L 413,329 L 414,330 L 413,329 L 413,327 Z" fill="rgb(129,118,65)" id="region_0" stroke="black" stroke-width="0.5" /><path d="M 162,357 L 161,358 L 161,359 L 162,360 L 163,359 L 162,360 L 161,359 L 161,358 L 162,357 L 163,357 Z" fill="rgb(144,137,88)" id="region_1" stroke="black" stroke-width="0.5" /><path d="M 275,393 L 276,394 L 277,393 L 278,394 L 279,394 L 280,393 L 279,393 L 278,394 L 277,393 L 276,394 Z" fill="rgb(160,154,105)" id="region_2" stroke="black" stroke-width="0.5" /><path d="M 103,280 L 104,281 L 104,282 L 105,281 L 106,282 L 106,283 L 108,283 L 110,285 L 111,284 L 112,285 L 112,286 L 113,287 L 114,286 L 115,287 L 115,288 L 116,289 L 117,289 L 119,291 L 120,291 L 121,292 L 123,292 L 124,293 L 125,292 L 126,292 L 127,291 L 126,292 L 124,290 L 125,291 L 124,292 L 122,292 L 121,291 L 120,291 L 119,290 L 119,289 L 118,289 L 117,288 L 116,288 L 114,286 L 113,286 L 111,284 L 110,284 L 109,283 L 109,282 L 108,282 L 107,283 L 105,281 L 105,280 L 104,281 Z" fill="rgb(163,143,78)" id="region_3" stroke="black" stroke-width="0.5" /><path d="M 379,391 L 379,392 L 380,392 L 381,391 L 382,392 L 383,392 L 384,391 L 383,391 L 382,392 L 381,391 L 380,392 Z" fill="rgb(175,168,119)" id="region_4" stroke="black" stroke-width="0.5" /><path d="M 162,291 L 161,292 L 162,292 L 163,293 L 162,294 L 163,293 L 164,293 L 165,292 L 164,293 L 163,293 L 162,292 Z" fill="rgb(181,164,94)" id="region_5" stroke="black" stroke-width="0.5" /><path d="M 35,394 L 36,395 L 35,396 L 36,397 L 35,396 L 36,395 L 38,395 L 38,394 L 37,395 L 36,395 Z" fill="rgb(188,182,132)" id="region_6" stroke="black" stroke-width="0.5" /><path d="M 129,299 L 131,301 L 130,302 L 132,304 L 130,302 L 131,301 L 132,301 L 134,303 L 135,303 L 136,304 L 137,304 L 136,303 L 138,301 L 139,301 L 140,300 L 139,299 L 139,300 L 136,303 L 135,303 L 134,302 L 133,302 L 131,300 L 130,300 Z" fill="rgb(198,180,107)" id="region_7" stroke="black" stroke-width="0.5" /><path d="M 208,368 L 210,368 L 211,369 L 223,369 L 222,369 L 221,368 L 219,368 L 218,369 L 211,369 L 210,368 Z" fill="rgb(201,195,145)" id="region_8" stroke="black" stroke-width="0.5" /><path d="M 229,330 L 228,331 L 229,332 L 231,332 L 232,333 L 233,332 L 232,331 L 231,331 L 230,332 L 229,332 L 228,331 Z" fill="rgb(207,196,120)" id="region_9" stroke="black" stroke-width="0.5" /><path d="M 582,395 L 582,398 L 581,399 L 587,399 L 587,398 L 586,399 L 585,398 L 583,398 L 582,397 L 582,396 L 583,395 L 585,395 Z" fill="rgb(212,209,155)" id="region_10" stroke="black" stroke-width="0.5" /><path d="M 251,310 L 252,311 L 250,313 L 249,313 L 248,314 L 247,313 L 247,312 L 247,314 L 248,314 L 249,313 L 251,313 L 251,312 L 252,311 Z" fill="rgb(221,209,129)" id="region_11" stroke="black" stroke-width="0.5" /><path d="M 305,390 L 303,392 L 302,392 L 302,394 L 303,394 L 304,395 L 304,396 L 303,397 L 303,399 L 309,399 L 309,398 L 307,396 L 308,395 L 308,394 L 307,394 L 305,392 L 306,391 L 306,390 Z" fill="rgb(224,217,164)" id="region_12" stroke="black" stroke-width="0.5" /><path d="M 219,391 L 219,393 L 217,395 L 218,395 L 218,394 L 219,393 L 220,393 L 221,394 L 221,396 L 223,396 L 223,394 L 222,393 L 222,392 L 221,393 Z" fill="rgb(234,220,173)" id="region_13" stroke="black" stroke-width="0.5" /><path d="M 106,286 L 106,288 L 112,294 L 112,295 L 113,296 L 113,297 L 114,298 L 114,300 L 115,300 L 116,301 L 115,302 L 116,302 L 118,304 L 119,304 L 121,306 L 124,306 L 125,307 L 125,308 L 127,308 L 128,307 L 128,306 L 127,306 L 125,304 L 125,302 L 126,301 L 130,301 L 129,300 L 130,299 L 131,299 L 132,300 L 133,300 L 134,301 L 135,301 L 136,302 L 138,300 L 138,299 L 136,297 L 135,298 L 134,297 L 134,295 L 133,295 L 132,294 L 131,294 L 130,293 L 129,294 L 128,294 L 129,294 L 130,295 L 130,297 L 129,298 L 130,299 L 129,300 L 125,300 L 124,299 L 124,297 L 123,296 L 121,296 L 118,293 L 117,293 L 116,292 L 117,291 L 116,292 L 115,291 L 114,291 L 112,289 L 113,288 L 112,289 L 111,289 L 109,287 L 110,286 L 109,287 L 108,287 L 107,286 Z" fill="rgb(236,197,117)" id="region_14" stroke="black" stroke-width="0.5" /><path d="M 372,282 L 370,284 L 367,284 L 369,284 L 370,285 L 369,286 L 368,286 L 369,287 L 369,286 L 371,284 L 372,284 L 371,283 L 372,282 L 374,282 Z" fill="rgb(236,219,134)" id="region_15" stroke="black" stroke-width="0.5" /><path d="M 194,272 L 195,273 L 194,274 L 193,274 L 191,276 L 190,276 L 189,275 L 188,275 L 188,276 L 187,277 L 186,276 L 185,277 L 185,278 L 186,279 L 187,279 L 188,278 L 189,279 L 191,277 L 192,278 L 192,279 L 192,277 L 193,276 L 193,275 L 195,273 Z" fill="rgb(243,230,140)" id="region_16" stroke="black" stroke-width="0.5" /><path d="M 252,382 L 252,383 L 251,384 L 253,386 L 253,390 L 254,390 L 255,389 L 255,388 L 254,389 L 253,388 L 253,387 L 254,386 L 254,385 L 255,384 L 256,384 L 255,384 L 253,386 L 252,385 Z" fill="rgb(243,232,179)" id="region_17" stroke="black" stroke-width="0.5" /><path d="M 134,371 L 134,372 L 135,371 L 136,372 L 137,371 L 149,371 L 150,372 L 150,373 L 150,372 L 151,371 L 156,371 L 157,372 L 156,373 L 155,373 L 157,373 L 157,372 L 158,371 L 161,371 L 162,372 L 162,373 L 163,373 L 164,372 L 165,372 L 166,373 L 165,372 L 166,371 Z" fill="rgb(247,242,188)" id="region_18" stroke="black" stroke-width="0.5" /><path d="M 54,213 L 53,214 L 49,214 L 49,217 L 52,220 L 49,217 L 49,215 L 50,214 L 53,214 L 55,216 L 55,217 L 55,216 L 56,215 L 55,214 L 56,213 Z" fill="rgb(251,250,199)" id="region_19" stroke="black" stroke-width="0.5" /></svg>