<?xml version="1.0" encoding="utf-8" ?>
<svg baseProfile="full" height="400" version="1.1" width="600" xmlns="http://www.w3.org/2000/svg" xmlns:ev="http://www.w3.org/2001/xml-events" xmlns:xlink="http://www.w3.org/1999/xlink"><defs /><path d="M 192,363 L 191,364 L 191,366 L 191,365 L 193,363 L 194,364 L 195,364 L 196,365 L 197,365 L 198,366 L 200,366 L 201,367 L 202,367 L 201,367 L 200,366 L 198,366 L 197,365 L 196,365 L 194,363 Z" fill="rgb(73,77,78)" id="region_0" stroke="black" stroke-width="0.5" /><path d="M 555,390 L 555,391 L 556,391 L 557,390 L 558,390 L 559,391 L 560,391 L 561,390 L 562,391 L 567,391 L 568,390 L 569,391 L 570,390 L 574,390 L 564,390 L 563,391 L 562,390 Z" fill="rgb(93,109,120)" id="region_1" stroke="black" stroke-width="0.5" /><path d="M 492,379 L 491,380 L 489,380 L 487,382 L 486,381 L 484,381 L 485,381 L 486,382 L 487,382 L 488,381 L 489,381 L 490,380 L 491,380 Z" fill="rgb(112,153,168)" id="region_2" stroke="black" stroke-width="0.5" /><path d="M 204,370 L 203,371 L 203,373 L 204,374 L 203,375 L 203,376 L 202,377 L 201,377 L 203,377 L 203,375 L 204,374 Z" fill="rgb(115,109,86)" id="region_3" stroke="black" stroke-width="0.5" /><path d="M 152,391 L 151,392 L 150,392 L 153,392 L 154,391 L 155,392 L 156,391 L 157,392 L 172,392 L 173,391 L 174,392 L 176,392 L 177,391 L 178,392 L 222,392 L 216,392 L 215,391 L 214,391 L 213,392 L 207,392 L 206,391 L 200,391 L 199,392 L 198,392 L 197,391 L 196,392 L 193,392 L 192,391 L 191,391 L 190,392 L 189,391 L 186,391 L 185,392 L 184,392 L 183,391 L 166,391 L 165,392 L 164,391 Z" fill="rgb(126,131,127)" id="region_4" stroke="black" stroke-width="0.5" /><path d="M 562,381 L 560,383 L 556,383 L 555,384 L 554,384 L 554,385 L 555,384 L 556,384 L 557,383 L 558,383 L 559,384 L 561,384 L 561,383 L 562,382 Z" fill="rgb(148,189,200)" id="region_5" stroke="black" stroke-width="0.5" /><path d="M 431,386 L 429,388 L 430,389 L 429,390 L 428,390 L 437,390 L 431,390 L 429,388 L 431,386 L 432,387 L 433,386 L 436,386 Z" fill="rgb(155,149,154)" id="region_6" stroke="black" stroke-width="0.5" /><path d="M 191,368 L 191,369 L 190,370 L 190,371 L 191,372 L 191,373 L 192,374 L 194,374 L 195,373 L 197,373 L 198,374 L 200,374 L 201,375 L 201,376 L 202,376 L 202,375 L 201,375 L 200,374 L 201,373 L 202,373 L 202,372 L 201,371 L 199,371 L 198,370 L 197,370 L 196,369 L 195,369 L 194,368 Z" fill="rgb(159,175,121)" id="region_7" stroke="black" stroke-width="0.5" /><path d="M 182,349 L 181,350 L 180,350 L 181,351 L 181,350 L 182,349 L 184,351 L 186,351 L 187,352 L 186,351 L 186,350 L 185,350 L 184,349 L 183,350 Z" fill="rgb(160,133,97)" id="region_8" stroke="black" stroke-width="0.5" /><path d="M 464,379 L 463,380 L 462,380 L 463,381 L 464,381 L 465,382 L 465,383 L 465,381 L 466,380 L 465,380 Z" fill="rgb(169,209,218)" id="region_9" stroke="black" stroke-width="0.5" /><path d="M 453,375 L 454,376 L 453,377 L 454,377 L 454,376 L 455,375 L 458,375 L 459,376 L 458,377 L 459,378 L 458,377 L 459,376 L 458,375 Z" fill="rgb(170,168,180)" id="region_10" stroke="black" stroke-width="0.5" /><path d="M 253,275 L 254,276 L 254,277 L 255,278 L 255,279 L 256,278 L 257,278 L 256,278 L 255,277 L 255,276 L 254,276 Z" fill="rgb(178,202,143)" id="region_11" stroke="black" stroke-width="0.5" /><path d="M 310,384 L 310,385 L 309,386 L 300,386 L 309,386 L 310,385 L 311,386 L 322,386 L 311,386 L 310,385 L 311,384 Z" fill="rgb(197,198,192)" id="region_12" stroke="black" stroke-width="0.5" /><path d="M 394,357 L 393,358 L 393,359 L 393,358 L 394,357 L 395,357 L 396,358 L 396,359 L 395,360 L 396,360 L 396,358 L 395,357 Z" fill="rgb(201,161,112)" id="region_13" stroke="black" stroke-width="0.5" /><path d="M 132,355 L 131,356 L 131,357 L 132,358 L 134,358 L 135,359 L 137,359 L 138,360 L 140,358 L 141,358 L 141,357 L 142,356 L 143,356 L 144,355 L 143,355 L 139,359 L 137,359 L 136,358 L 137,357 L 136,358 L 132,358 L 131,357 L 131,356 Z" fill="rgb(208,168,163)" id="region_14" stroke="black" stroke-width="0.5" /><path d="M 524,392 L 529,392 L 530,393 L 533,393 L 534,392 L 533,393 L 532,393 L 531,392 L 530,393 L 529,392 Z" fill="rgb(229,222,208)" id="region_15" stroke="black" stroke-width="0.5" /><path d="M 537,308 L 535,310 L 534,310 L 533,311 L 532,311 L 531,312 L 530,312 L 530,313 L 531,314 L 532,313 L 534,313 L 536,311 L 536,310 L 537,309 Z" fill="rgb(233,184,126)" id="region_16" stroke="black" stroke-width="0.5" /><path d="M 208,346 L 209,347 L 209,349 L 210,349 L 211,350 L 212,350 L 213,351 L 215,351 L 216,350 L 217,350 L 218,351 L 216,349 L 213,349 L 212,348 L 210,348 L 209,347 L 209,346 Z" fill="rgb(234,193,191)" id="region_17" stroke="black" stroke-width="0.5" /><path d="M 20,389 L 20,390 L 25,390 L 26,389 L 27,389 L 28,390 L 31,390 L 32,389 L 33,390 L 38,390 L 39,389 L 40,389 L 41,390 L 42,389 L 47,389 L 48,390 L 50,390 L 51,389 L 53,389 L 54,390 L 57,390 L 58,389 L 61,389 L 62,390 L 63,390 L 64,389 L 79,389 L 80,390 L 81,389 L 89,389 L 90,390 L 91,389 L 106,389 Z" fill="rgb(240,239,230)" id="region_18" stroke="black" stroke-width="0.5" /><path d="M 306,283 L 304,285 L 305,285 L 306,286 L 306,289 L 306,288 L 307,287 L 308,288 L 308,287 L 307,286 L 306,286 L 305,285 L 305,284 Z" fill="rgb(241,229,147)" id="region_19" stroke="black" stroke-width="0.5" /></svg>