<?xml version="1.0" encoding="UTF-8" standalone="no"?>
<svg
   version="1.0"
   width="1000.000000pt"
   height="1000.000000pt"
   viewBox="0 0 1000.000000 1000.000000"
   preserveAspectRatio="xMidYMid meet"
   id="svg1"
   sodipodi:docname="hammer.svg"
   inkscape:version="1.4 (e7c3feb100, 2024-10-09)"
   xmlns:inkscape="http://www.inkscape.org/namespaces/inkscape"
   xmlns:sodipodi="http://sodipodi.sourceforge.net/DTD/sodipodi-0.dtd"
   xmlns="http://www.w3.org/2000/svg"
   xmlns:svg="http://www.w3.org/2000/svg">
  <sodipodi:namedview
     id="namedview1"
     pagecolor="#ffffff"
     bordercolor="#000000"
     borderopacity="0.25"
     inkscape:showpageshadow="2"
     inkscape:pageopacity="0.0"
     inkscape:pagecheckerboard="0"
     inkscape:deskcolor="#d1d1d1"
     inkscape:document-units="pt"
     inkscape:zoom="0.41798463"
     inkscape:cx="633.99461"
     inkscape:cy="797.87623"
     inkscape:window-width="1886"
     inkscape:window-height="986"
     inkscape:window-x="0"
     inkscape:window-y="0"
     inkscape:window-maximized="1"
     inkscape:current-layer="svg1" />
  <defs
     id="defs1" />
  <g
     transform="translate(0.000000,1000.000000) scale(0.100000,-0.100000)"
     fill="#000000"
     stroke="none"
     id="hammer"
     style="fill:#000000">
    <path
       id="path1"
       style="fill:#000000"
       d="M 3551.9971,8195.0049 2695.0049,7345 c -472,-467 -992.0108,-981.999 -1156.0108,-1143.999 -165,-161 -298.9892,-297.0069 -298.9892,-302.0069 0,-14 1141,-1158.999 1155,-1158.999 7,0 253.9902,239.9981 549.9902,532.9981 296,292 543.0049,533.0048 550.0049,535.0048 7,2 19.001,-3.0009 26.001,-11.0009 8,-8 76.999,-80.9932 153.999,-162.9932 77,-82 192,-203.0039 255,-269.0039 63,-66 152.9951,-161 199.9951,-210 46,-50 138.0049,-145.9951 205.0049,-214.9951 66,-69 169.9951,-177 229.9951,-240 242,-254 738.001,-765.0098 1226.001,-1265.0098 369.1406,-379.0904 496.6063,-512.5798 497.8857,-523.7695 26.4135,-19.34 52.4916,-39.132 78.4278,-59.1065 26.0116,-19.8918 51.5485,-40.4169 75.8349,-62.3877 13.8516,-12.1787 27.1702,-24.9109 40.4297,-37.7197 10.1182,-9.5634 20.1154,-19.2441 30.0586,-28.9892 17.163,-17.2358 34.2899,-34.502 51.0645,-52.1192 20.8769,-21.0931 39.3409,-44.3368 57.5976,-67.6758 8.9042,-11.8292 17.9421,-23.5554 26.8946,-35.3466 42.438,-27.0863 27.9427,-17.8609 52.3828,-33.4131 273.2029,-173.8503 443.9146,-370.8167 531.4013,-562.7491 10.4581,-3.635 20.8553,-7.4394 31.3477,-10.9863 18.5199,-6.1472 36.5179,-13.6797 54.8437,-20.3613 18.0549,-6.2467 35.0008,-15.0557 51.9141,-23.8184 24.7518,-13.0371 45.6394,-32.0572 59.8828,-56.25 2.8624,-4.8619 5.0672,-10.077 7.6026,-15.1172 9.3545,-21.4483 12.1833,-44.4933 13.6084,-67.5878 0.107,-2.4011 0.2152,-4.806 0.3222,-7.2071 0.824,-18.5399 -0.1023,-35.4825 -2.3877,-50.9472 28.2709,-30.3224 49.38,-53.6972 88.8867,-94.4385 240,-249 908.0049,-959.00295 1045.0049,-1113.00295 49,-54 168.003,-133.99707 243.003,-161.99707 32,-12 97.0048,-28.99804 145.0048,-37.99804 75,-13 97.9903,-13.00293 159.9903,-3.00293 170,30 268.0029,80.00097 378.0029,191.00097 102,103 148.0039,198.99219 179.0039,376.99219 13,72 -3.998,202.00883 -37.998,294.00883 C 9602.0059,1300.0059 9572,1333 9030,1840 c -102,96 -230,217.0039 -285,269.0039 -123,118 -392.998,371.9971 -457.998,431.9971 l -48.9991,44.0039 19.9951,24.9902 c 1.8313,2.3545 3.7305,5.3305 5.5665,7.7197 -52.2758,47.5785 -100.7184,99.0896 -148.1983,151.3916 -20.5716,22.7649 -40.6017,46.0216 -60.2637,69.5801 -8.7526,5.2681 -17.6508,10.2874 -26.3086,15.7031 -40.1654,25.3069 -80.2836,50.6927 -120.3955,76.084 -46.644,29.0937 -91.6795,60.6053 -136.6552,92.1826 -44.9794,32.4093 -88.4464,66.8431 -131.4991,101.7481 -30.0587,25.1524 -60.5811,49.7294 -90.4541,75.1025 -26.3819,22.9942 -52.2053,46.5997 -79.1162,68.9795 -27.7565,22.345 -55.9632,44.1178 -84.9463,64.8487 -19.4958,14.1828 -39.4027,27.7944 -59.0478,41.7627 -12.5368,8.5426 -24.4797,17.8934 -36.0791,27.6562 -14.5762,11.0299 -25.0114,26.0482 -34.7754,41.2207 0.142,-0.289 0.5454,-0.5602 0.4394,-0.8642 -0.083,-0.235 -0.4026,0.302 -0.5566,0.498 -1.7032,2.1666 -3.3392,4.3852 -5.0098,6.5771 -3.7039,4.8593 -7.1156,9.9494 -10.9423,14.7071 -5.1087,7.0415 -7.0596,9.2834 -10.5323,13.4179 -0.021,0.024 -0.067,0.064 -0.088,0.088 -4.6422,5.2943 -9.6783,10.7582 -18.5742,20.4493 -8.2089,7.9979 -15.018,17.3819 -23.2177,25.371 -8.0674,9.1974 -12.2762,13.4732 -20.7715,22.8956 -11.2428,11.4018 -20.0822,24.7964 -30,37.2802 -8.8117,11.2937 -17.1165,22.8469 -24.8438,34.9073 -14.8405,23.1625 -20.633,39.3349 -19.9072,50.4345 -41.3964,39.3108 -103.0599,97.3923 -141.8262,134.2676 -42,39 -144.9951,135.9912 -229.9951,215.9912 -85,80 -208.9951,197.0098 -274.9951,260.0098 -66,63 -152.0049,143.9892 -190.0049,178.9892 -73,68 -363.9951,343.0059 -544.9951,516.0059 -58,55 -143.0049,136 -190.0049,180 -197,186 -450.0049,425.0049 -520.0049,490.0049 -41,38 -122,114.9951 -180,169.9951 -58,56 -140.9951,134.0049 -184.9951,175.0049 -44,41 -126.9951,119.9902 -184.9951,174.9902 -233,224 -259.0088,247.0059 -279.0088,261.0059 -12,9 -20.9912,20.9931 -20.9912,27.9931 0,7 328.9902,338.0108 729.9902,736.0108 402,398 727.0069,726.9971 722.0069,731.9971 -4,4 -43.9971,12.999 -86.9971,18.999 -44,6 -109.0049,13.999 -145.0049,18.999 -36,5 -98.9951,13.999 -139.9951,18.999 -41,6 -158.0098,22.0059 -260.0098,36.0059 -244,34 -309.9902,42.9902 -399.9902,54.9902 -41,5 -104.0098,13.999 -140.0098,18.999 -70,10 -116.9902,17.001 -399.9902,56.001 -102,14 -221.0049,31.002 -265.0049,37.002 -44,7 -109.9971,12.0078 -146.9971,13.0078 z M 3658.96,2468.7988 c -8.2513,-0.3475 -43.4802,-3.8413 -50.6397,-4.5263 -26.9063,-2.9763 -53.701,-6.8192 -80.4492,-10.9424 36.6707,2.8753 77.1606,7.5081 122.0215,14.1357 3.0243,0.4464 12.1218,1.462 9.0674,1.333 z" />
  </g>
  <path
     style="fill:#ffff00;fill-opacity:0.14902;stroke-width:2.39243"
     d="m 1181.4149,1286.1092 c -19.5409,-7.6407 -26.8949,-13.7109 -63.2818,-52.2345 -19.5565,-20.705 -55.2053,-58.3556 -79.2193,-83.6679 -33.3177,-35.1189 -43.66189,-47.4766 -43.66189,-52.1607 0,-10.9711 -6.3597,-19.5473 -17.70986,-23.882 -8.70343,-3.3238 -12.27059,-6.712 -19.64483,-18.6593 -11.12833,-18.0293 -33.41604,-40.5938 -53.70423,-54.3713 -8.43301,-5.72675 -21.27013,-16.83806 -28.52693,-24.6918 -7.25678,-7.85373 -18.03882,-18.15232 -23.96009,-22.88572 C 845.7847,948.82258 828.0712,931.5061 812.34263,915.0749 796.61406,898.64372 738.3984,838.36815 682.97452,781.12921 627.55064,723.89026 557.16487,650.68183 526.56169,618.4438 c -30.60316,-32.23803 -57.1784,-58.96442 -59.05605,-59.392 -1.88753,-0.42982 -35.75191,30.86322 -75.74039,69.98937 l -72.32643,70.76679 -75.85089,-75.8231 c -46.77233,-46.75521 -75.21415,-76.90567 -74.18995,-78.64693 0.91352,-1.5531 69.63691,-70.25231 152.71865,-152.66492 L 473.17434,242.8319 h 11.49583 c 9.83362,0 251.44377,32.24605 258.18012,34.45753 1.31584,0.43198 -40.9405,44.30472 -93.90298,97.49498 -52.96247,53.19026 -96.29541,97.45119 -96.29541,98.35762 0,2.01192 -1.72484,0.36752 215.31893,205.27481 96.71408,91.30611 177.19922,168.72525 178.85583,172.04255 8.09743,16.21461 59.64724,61.41936 103.37884,90.65431 22.1063,14.7783 47.8979,39.60034 47.9433,46.14098 0.012,1.76681 38.7105,39.61122 85.996,84.09872 47.2856,44.4876 89.2766,85.8727 93.3133,91.9671 28.7285,43.372 7.9817,103.7932 -42.0694,122.5197 -16.3793,6.1283 -38.7043,6.2396 -53.9738,0.269 z"
     id="path2"
     transform="scale(0.75)" />
  <path
     style="fill:#ffff00;fill-opacity:0.14902;stroke-width:2.39243"
     d="m 1179.1568,1283.8827 c -6.0931,-2.4465 -15.1714,-7.5617 -20.174,-11.3671 -10.2614,-7.8057 -140.3102,-144.1888 -154.5175,-162.0437 -5.11625,-6.4298 -9.21339,-14.2249 -9.21339,-17.5291 0,-6.5511 -9.10428,-16.488 -20.76042,-22.659 -4.07073,-2.1551 -11.97875,-10.2296 -17.57335,-17.9433 -13.62491,-18.7855 -26.90508,-32.5506 -44.20515,-45.8191 C 876.9073,979.05981 797.4539,899.05244 546.87739,638.13514 504.88417,594.40894 468.81825,558.6333 466.7309,558.6337 c -2.08738,3.9e-4 -36.00161,31.38379 -75.36499,69.74087 l -71.56977,69.74015 -75.36036,-75.87439 -75.36037,-75.87437 20.13122,-20.35946 c 11.07217,-11.19771 80.08567,-79.55991 153.36334,-151.916 l 133.23212,-131.55653 59.35869,7.45205 c 103.77549,13.02825 200.44491,26.71693 202.50795,28.67574 1.09767,1.04221 -40.08207,44.79754 -91.51054,97.23406 -51.42845,52.43653 -93.50629,96.48445 -93.50629,97.88427 0,1.39983 63.78824,62.87393 141.75163,136.60915 205.32851,194.19291 246.7757,234.19091 257.78185,248.76843 11.92084,15.78905 51.70752,50.15685 88.75392,76.66579 28.4943,20.38948 50.2342,40.106 55.9781,50.7683 1.8571,3.44724 9.0793,11.72632 16.0493,18.39794 6.97,6.6716 39.5877,37.7291 72.4836,69.0167 100.7941,95.8662 102.5448,98.1318 102.7531,132.9758 0.1051,17.5875 -0.7863,22.1842 -6.5957,34.0146 -8.4467,17.2009 -23.3604,32.6819 -38.7769,40.2519 -16.0988,7.9051 -47.329,9.197 -63.674,2.634 z"
     id="path3"
     transform="scale(0.75)" />
  <path
     style="fill:#ffff00;fill-opacity:0.14902;stroke-width:2.39243"
     d="m 1172.9183,1279.8913 c -9.5331,-4.8083 -25.0411,-19.2971 -64.8077,-60.5487 -88.8339,-92.1513 -102.8624,-107.8925 -110.71322,-124.2295 -5.45482,-11.3511 -10.27062,-17.2465 -19.8977,-24.3585 -6.98561,-5.1605 -16.51345,-14.5704 -21.17298,-20.9109 -9.39852,-12.7889 -28.74433,-31.5995 -66.40337,-64.56629 C 858.72022,957.96217 772.95156,871.30248 607.36784,699.7865 536.86472,626.7575 476.86058,564.94614 474.0253,562.42791 c -4.49887,-3.99579 -5.90397,-4.17776 -11.03911,-1.42953 -3.23624,1.73201 -36.77035,32.86042 -74.52021,69.17427 l -68.63613,66.0252 -73.18925,-73.71919 c -40.25408,-40.54556 -73.49775,-74.57636 -73.87481,-75.624 -0.37706,-1.04765 67.79223,-69.8395 151.48731,-152.87078 136.91044,-135.82457 152.81612,-150.85632 158.58612,-149.87264 3.52728,0.60134 40.32595,5.45406 81.77485,10.78382 79.79908,10.26107 132.66858,17.57843 157.33406,21.77569 l 14.98436,2.54984 -21.42917,23.07512 c -11.78603,12.69131 -53.24915,55.8508 -92.14027,95.90998 -38.89115,40.05918 -70.71115,74.04957 -70.71115,75.53419 0,2.77627 65.46796,65.80638 228.47731,219.96939 51.31767,48.53274 119.68143,114.7213 151.91946,147.0857 47.42868,47.61462 66.13396,64.54337 98.01643,88.70742 21.671,16.42467 44.8178,35.7216 51.4373,42.88206 6.6195,7.16048 37.3354,37.79755 68.2576,68.08235 141.0404,138.1333 137.5633,133.7955 135.9859,169.6465 -1.0389,23.6134 -6.9103,37.2425 -23.2143,53.8875 -16.4895,16.8343 -25.835,20.5347 -54.157,21.4435 -21.9327,0.7038 -24.9675,0.2415 -36.4563,-5.553 z"
     id="path4"
     transform="scale(0.75)" />
  <path
     style="fill:#ffff00;fill-opacity:0.14902;stroke-width:2.39243"
     d="m 1175.8806,1280.1717 c -10.4672,-4.6392 -33.8269,-26.9232 -91.7702,-87.5441 -61.0281,-63.8482 -78.6118,-84.0724 -86.05711,-98.9802 -3.04799,-6.103 -11.36205,-16.1212 -18.47564,-22.2627 -7.11361,-6.1414 -19.70582,-18.839 -27.9827,-28.2168 -8.27691,-9.3778 -32.79216,-33.3118 -54.47839,-53.18659 C 848.33311,945.27268 770.3112,866.70446 604.18799,695.00164 533.53213,621.97264 473.69008,561.26617 471.20568,560.09835 c -6.48923,-3.05028 -9.74325,-0.45478 -63.06577,50.30341 -26.07247,24.81861 -56.78679,53.91865 -68.25405,64.66675 l -20.84956,19.54201 -72.6911,-74.2839 -72.69111,-74.28388 142.24837,-141.46547 c 78.2366,-77.806 147.32907,-145.5927 153.53885,-150.63711 l 11.29049,-9.17166 109.52735,14.62964 c 60.24004,8.04631 117.44075,15.96015 127.11266,17.58631 l 17.58532,2.95666 -31.93991,33.72518 c -17.56694,18.54886 -58.58562,61.46203 -91.15261,95.36261 -32.56699,33.90058 -59.21271,62.93922 -59.21271,64.5303 0,3.43569 39.8503,42.6311 137.56487,135.30415 117.76417,111.6882 176.12899,167.75839 239.24325,229.83728 37.29621,36.68436 73.76988,69.93987 96.89348,88.34437 26.2659,20.90549 64.8115,56.7002 132.1437,122.7132 88.3837,86.6519 116.0655,115.8884 123.9463,130.9072 5.3273,10.1525 3.3684,43.873 -3.4087,58.6761 -7.65,16.7096 -20.6776,30.6472 -35.5944,38.0806 -10.7772,5.3705 -15.2157,6.1065 -36.3298,6.0243 -14.6167,-0.057 -26.8684,-1.3416 -31.23,-3.2747 z"
     id="path5"
     transform="scale(0.75)" />
  <path
     style="fill:#ffff00;fill-opacity:0.14902;stroke-width:2.39243"
     d="m 1188.6082,1281.3004 c -17.6051,-2.4331 -20.7998,-5.051 -80.974,-66.3561 -62.1107,-63.2781 -93.7299,-98.3183 -106.4919,-118.014 -6.31337,-9.7436 -28.69165,-33.8659 -59.92524,-64.5957 C 829.50319,922.42297 674.569,766.62111 576.61858,665.69434 519.47133,606.81059 470.99259,558.63299 468.88801,558.63299 c -6.30356,0 -15.82599,8.2437 -84.12779,72.83071 l -65.37048,61.81512 -72.2994,-73.72127 -72.2994,-73.72128 138.09129,-136.67749 C 480.75055,243.00915 478.66504,244.95332 487.38761,246.47841 c 3.65734,0.63947 55.63475,7.71973 115.50538,15.73392 125.26386,16.76762 126.97203,17.03238 127.12037,19.70268 0.0611,1.10022 -36.42933,40.39592 -81.08988,87.32378 -87.0036,91.42061 -96.27158,101.51572 -96.27158,104.86352 0,3.24709 72.72266,74.4255 215.31893,210.74668 70.39732,67.29944 148.98873,142.60235 174.64757,167.33986 25.65884,24.73749 62.8014,58.53902 82.5389,75.11454 73.6894,61.88395 244.4565,230.81131 254.6856,251.94161 4.9128,10.1487 5.3924,13.7148 4.0994,30.4827 -0.8099,10.5029 -3.5374,23.6759 -6.1031,29.476 -6.1179,13.8304 -22.1481,30.9588 -34.5674,36.9354 -11.6274,5.5955 -35.3292,7.8335 -54.6636,5.1613 z"
     id="path6"
     transform="scale(0.75)" />
  <path
     style="fill:#ffff00;fill-opacity:0.14902;stroke-width:2.39243"
     d="m 1179.5329,1278.3325 c -14.9058,-4.2755 -140.0482,-131.745 -174.5678,-177.814 -10.62796,-14.1838 -55.93608,-61.132 -132.75922,-137.56488 C 808.06214,899.13572 692.02897,782.05627 614.35437,702.77704 512.48605,598.80427 471.66352,558.63299 467.8735,558.63299 c -6.02448,0 -18.71574,11.06356 -93.45782,81.47177 -28.94843,27.26988 -53.71011,49.52701 -55.02594,49.46031 -1.31584,-0.0667 -34.06662,-32.31456 -72.77952,-71.66189 l -70.38708,-71.54065 29.71573,-29.96636 c 92.99526,-93.77961 270.86761,-266.47462 275.71707,-267.69176 4.91523,-1.23364 227.01039,27.64804 242.49572,31.53461 6.64974,1.66898 14.39512,-7.32141 -77.01274,89.3918 -78.19649,82.73506 -94.48702,100.65767 -94.48702,103.95335 0,4.07779 93.14865,95.52915 257.1865,252.50021 179.92173,172.17069 176.31875,168.77777 209.3378,197.13371 91.8456,78.87461 253.3653,239.51091 261.2689,259.83981 3.4458,8.863 2.4728,35.0794 -1.8542,49.9641 -5.2201,17.9563 -28.07,41.1968 -44.557,45.3187 -13.3578,3.3395 -42.8452,3.3351 -54.501,-0.01 z"
     id="path7"
     transform="scale(0.75)" />
  <path
     style="fill:#ffff00;fill-opacity:0.14902;stroke-width:2.39243"
     d="m 1192.3844,1278.7552 c -13.2774,-1.088 -15.8742,-2.2769 -28.7092,-13.1428 -35.093,-29.7093 -124.9043,-124.1565 -163.73457,-172.1863 -24.41188,-30.1955 -525.24087,-533.47163 -531.70774,-534.30578 -6.43655,-0.83024 -14.11293,5.58155 -79.46261,66.37216 -71.90299,66.88674 -67.22907,63.01145 -72.55754,60.15975 -2.57176,-1.37637 -35.04669,-33.47939 -72.16651,-71.34007 l -67.49058,-68.83755 71.41704,-70.16053 C 423.94583,302.43703 479.30622,250.00919 485.87995,250.00919 c 15.44576,0 238.2551,29.53215 240.61517,31.89222 1.0001,1.00011 -17.70219,21.2238 -119.84767,129.59698 -27.2849,28.94843 -50.79454,55.11254 -52.24364,58.14246 -2.43679,5.09502 -0.0401,8.12254 31.89883,40.29412 38.46225,38.74248 180.74598,176.40391 297.70722,288.03572 93.23589,88.9875 104.54867,99.51052 154.39214,143.6138 80.0771,70.85501 202.5508,191.76291 232.391,229.41991 l 10.3546,13.0671 -0.2606,20.5152 c -0.1965,15.4724 -1.5478,23.4338 -5.4974,32.3891 -5.7224,12.9748 -21.2126,30.3534 -32.5209,36.4853 -8.5838,4.6545 -30.387,6.9409 -50.4843,5.2941 z"
     id="path8"
     transform="scale(0.75)" />
  <path
     style="fill:#ffff00;fill-opacity:0.14902;stroke-width:2.39243"
     d="m 1183.8576,1277.2187 c -3.5076,-0.6242 -14.2736,-7.8955 -23.9243,-16.1585 -24.2254,-20.7418 -92.6493,-91.3964 -130.0344,-134.2736 C 980.16854,1069.7507 932.45666,1020.6259 695.80825,782.8025 543.15177,629.38805 470.97775,558.4292 467.6767,558.51195 c -6.4206,0.16094 -18.59334,10.4307 -83.1976,70.1911 -57.77504,53.44321 -62.62247,57.55116 -66.41811,56.28595 -1.32093,-0.44033 -33.42473,-31.84747 -71.34177,-69.79367 l -68.94007,-68.99311 79.17881,-78.09275 c 138.92109,-137.01554 204.62949,-200.13942 219.6916,-211.05034 7.09613,-5.14041 11.049,-6.3612 18.02356,-5.5663 75.14891,8.5648 228.1566,29.13561 229.93401,30.91302 1.15021,1.15022 1.95263,0.27118 -87.26367,95.59848 -73.75127,78.80299 -84.69156,91.14114 -84.69156,95.51276 0,5.51527 170.39077,172.214 373.22914,365.14201 28.29582,26.91336 78.35746,73.11793 111.24806,102.67684 62.2101,55.90834 209.0357,200.43536 230.8202,227.20666 l 12.5235,15.3902 -0.993,22.8887 c -1.0657,24.5638 -3.6796,31.9699 -17.2431,48.8559 -12.76,15.8857 -24.2693,20.9393 -49.8039,21.8685 -12.2087,0.4443 -25.0675,0.2971 -28.5752,-0.3272 z"
     id="path9"
     transform="scale(0.75)" />
  <path
     style="fill:#ffff00;fill-opacity:0.14902;stroke-width:2.39243"
     d="m 1167.5071,1265.867 c -28.5605,-22.7745 -83.3566,-78.9666 -149.5306,-153.3402 -74.58125,-83.8225 -541.72255,-553.89381 -550.44131,-553.89381 -6.11277,0 -25.06731,15.65172 -75.17626,62.0769 -21.71133,20.11521 -46.82193,42.95148 -55.80133,50.74727 l -16.3262,14.17416 -23.14894,-21.47098 c -12.73192,-11.80905 -44.65732,-43.06173 -70.94534,-69.45041 l -47.7964,-47.97942 13.10613,-13.35752 c 26.14924,-26.65086 248.08673,-242.51326 267.68669,-260.35929 11.06717,-10.07685 22.8339,-19.00214 26.14826,-19.83399 7.73076,-1.9403 221.85449,24.70736 234.39065,29.16988 4.62117,1.64501 4.70156,1.55198 -77.87686,90.12799 -77.72549,83.37062 -89.14369,96.33473 -89.14369,101.21301 0,7.72713 318.02062,315.89532 465.3631,450.94598 76.4835,70.10286 215.004,205.60953 244.5943,239.27243 l 17.8671,20.3263 -1.589,21.5412 c -1.9233,26.0733 -8.6286,41.7553 -23.855,55.7904 -12.9915,11.9752 -22.7413,14.7659 -51.6389,14.781 l -22.7281,0.012 z"
     id="path10"
     transform="scale(0.75)" />
  <path
     style="fill:#ffff00;fill-opacity:0.14902;stroke-width:2.39243"
     d="m 1168.606,1265.6319 c -23.7535,-18.9847 -67.8268,-63.6146 -129.9234,-131.5641 C 964.05345,1052.4044 848.68849,934.32187 638.35415,724.30894 519.7251,605.86113 470.92981,558.63299 467.18072,558.63299 c -6.3892,0 -23.22631,13.99187 -87.58978,72.78839 -56.98586,52.05701 -57.6714,52.60217 -62.6463,49.81808 -2.01737,-1.12899 -33.8545,-31.98752 -70.74917,-68.57451 l -67.08123,-66.5218 71.33396,-69.776 C 376.58148,352.98871 457.84521,274.62513 470.06913,264.58408 c 9.99073,-8.20665 13.64041,-9.79002 22.56602,-9.79002 22.81854,0 217.72124,24.63041 224.37701,28.35516 4.40787,2.46677 1.70647,5.65002 -73.39112,86.4816 -75.57099,81.3411 -90.96914,98.68062 -90.96914,102.43833 0,6.143 20.3937,27.11763 129.86746,133.56693 153.30987,149.07433 249.77967,241.09482 331.87204,316.56568 86.9293,79.91774 222.6946,213.60514 258.1567,254.20574 l 7.774,8.9004 -2.6877,22.1046 c -3.1588,25.9796 -8.026,38.0325 -20.4719,50.6953 -12.5016,12.7195 -21.6712,15.9389 -49.9619,17.5409 l -24.3373,1.3782 z"
     id="path11"
     transform="scale(0.75)" />
  <path
     style="fill:#ffff00;fill-opacity:0.14902;stroke-width:2.39243"
     d="m 1166.3108,1262.8891 c -22.8587,-18.9496 -60.9354,-57.6922 -127.8324,-130.0679 C 955.78374,1043.354 850.89622,935.97244 652.39172,737.55387 548.11633,633.32363 473.4083,560.4425 469.9513,559.57484 c -9.08069,-2.2791 -13.33128,1.11765 -101.3591,80.99896 -24.28801,22.04028 -46.1302,40.07324 -48.53821,40.07324 -2.52664,0 -32.93405,-28.26271 -71.90176,-66.83037 l -67.52358,-66.8304 13.15838,-13.53593 c 18.98629,-19.53108 239.10734,-233.61188 262.84634,-255.6337 11.00797,-10.21168 22.79792,-19.62496 26.19994,-20.9184 7.32833,-2.78622 30.47952,-0.73002 126.72961,11.25566 66.57862,8.29079 105.41275,14.19023 107.56278,16.34026 1.99728,1.99729 -5.23756,10.28945 -71.59323,82.05595 -82.36829,89.08484 -92.88057,101.19535 -92.88057,107.00177 0,9.02552 255.17843,257.25229 474.8979,461.96052 73.6726,68.6394 241.5754,234.3804 248.4544,245.2556 3.4488,5.4523 3.5083,8.3585 0.5732,28.0061 -3.8706,25.9104 -10.2403,40.2773 -22.947,51.757 -10.9495,9.8923 -19.9768,12.5964 -49.0406,14.69 l -21.5319,1.5511 z"
     id="path12"
     transform="scale(0.75)" />
  <path
     style="fill:#ffff00;fill-opacity:0.14902;stroke-width:2.39243"
     d="m 1169.8995,1265.2678 c -24.1837,-20.6404 -57.3701,-54.1631 -119.2485,-120.457 C 946.51627,1033.2453 867.48351,952.27897 668.29305,753.09846 553.67833,638.48949 473.99583,560.58995 470.47431,559.70611 c -3.2432,-0.814 -8.27652,-0.20637 -11.18517,1.35029 -6.36186,3.40477 -29.53836,23.37871 -77.69616,66.96002 -19.73757,17.8619 -41.64903,37.02179 -48.69213,42.57755 l -12.80565,10.10135 -13.51111,-11.98058 c -7.43111,-6.58934 -38.81108,-36.77119 -69.73327,-67.07079 L 180.62865,546.55379 226.50346,501.7542 C 341.82013,389.14033 459.21462,275.90373 470.11298,266.77287 l 11.96217,-10.02213 26.31675,1.26557 c 26.51586,1.27515 167.54274,18.35747 193.15675,23.39672 7.58377,1.49202 13.78866,3.79903 13.78866,5.1267 0,3.15624 -14.9232,20.0285 -76.66657,86.67974 -69.75233,75.29677 -86.01884,94.22236 -86.01884,100.08029 0,9.33631 232.07653,236.03207 449.792,439.36342 40.125,37.47397 118.4599,113.37392 174.0776,168.66652 l 101.1232,100.5319 -0.043,10.9814 c -0.062,16.0003 -8.7058,47.2637 -15.9615,57.7337 -11.1378,16.0719 -24.4318,21.3402 -61.8354,24.5046 l -16.747,1.4169 z"
     id="path13"
     transform="scale(0.75)" />
  <path
     style="fill:#ffff00;fill-opacity:0.14902;stroke-width:2.39243"
     d="m 1162.5219,1258.0419 c -25.7112,-23.3942 -40.5548,-38.6221 -138.3488,-141.931 C 855.10832,937.51194 481.3966,562.44743 469.5421,559.47213 c -7.97859,-2.00249 -16.77136,4.54297 -70.72868,52.65141 -57.06985,50.8836 -75.223,66.13107 -78.73347,66.13107 -3.1435,0 -14.47572,-10.55871 -85.30398,-79.48134 L 181.26382,546.70085 237.1684,492.18882 C 343.63481,388.37442 439.10747,296.14577 460.54325,276.40387 l 21.5319,-19.8304 25.12054,1.61464 c 26.60488,1.71004 165.92005,18.60456 190.19838,23.06503 7.89503,1.4505 15.20195,3.45133 16.23758,4.4463 2.23437,2.1466 -16.4418,23.71318 -82.00569,94.69733 -63.43516,68.67943 -78.97406,86.98683 -78.97406,93.04452 0,8.2067 174.86249,180.35938 373.28337,367.49873 115.92223,109.33127 180.03063,171.04618 272.27023,262.10498 l 80.1094,79.084 -1.6353,15.9609 c -3.8263,37.3476 -17.3132,62.0077 -38.1498,69.7551 -7.6189,2.8329 -42.8914,8.3353 -54.476,8.4981 -0.7681,0.011 -10.4574,-8.2248 -21.5319,-18.3012 z"
     id="path14"
     transform="scale(0.75)" />
  <path
     style="fill:#ffff00;fill-opacity:0.14902;stroke-width:2.39243"
     d="M 1167.9295,1262.033 C 1147.0396,1243.8263 1095.048,1190.8397 1015.384,1106.5678 885.93289,969.62918 493.413,574.13322 474.94854,562.03486 c -11.48178,-7.52315 -15.97798,-4.49165 -84.69191,57.10224 -20.55506,18.42518 -44.644,39.38882 -53.53097,46.58585 l -16.15814,13.08551 -7.76619,-5.98237 c -4.2714,-3.29032 -35.21935,-32.91631 -68.77322,-65.83558 l -61.00702,-59.85323 10.76594,-11.23264 C 207.67614,521.41346 415.81071,319.14093 453.22454,283.77409 l 28.5678,-27.00476 19.28085,1.55768 c 69.55909,5.61959 206.28921,23.42165 210.24058,27.37302 3.05626,3.05627 -3.5797,11.09894 -57.25751,69.39493 -73.49639,79.81967 -99.00286,108.85239 -100.47356,114.36399 -1.0035,3.76078 0.69534,7.98137 5.77797,14.3546 19.42925,24.36289 213.08633,212.93653 401.15518,390.62495 95.29015,90.03068 214.65895,205.6551 291.57495,282.429 l 25.9692,25.9211 -1.7262,15.0874 c -3.7827,33.0625 -16.0214,58.2357 -32.367,66.5746 -8.1778,4.172 -25.1988,7.7266 -49.7206,10.3833 -9.8052,1.0623 -11.1747,0.3962 -26.3167,-12.8009 z"
     id="path15"
     transform="scale(0.75)" />
  <path
     style="fill:#ffff00;fill-opacity:0.14902;stroke-width:2.39243"
     d="m 1157.765,1251.8891 c -13.8198,-12.4788 -33.1612,-31.33 -42.9808,-41.8914 C 972.46036,1056.9218 483.11215,562.69895 470.96876,559.76891 c -9.39896,-2.26786 -16.53248,2.42796 -54.78614,36.06439 -59.39537,52.2263 -89.46586,77.99816 -93.61948,80.2364 -3.22555,1.7381 -17.06184,-10.45072 -71.17487,-62.70023 -36.94403,-35.67174 -67.17097,-65.61538 -67.17097,-66.54137 0,-1.86846 230.91433,-226.55759 287.29631,-279.55113 l 10.9003,-10.24519 39.30576,3.71403 c 41.79034,3.94879 141.83823,16.35146 170.22879,21.1028 9.36906,1.56797 17.43852,4.07972 17.93212,5.58166 1.17847,3.58588 -13.35355,20.83747 -65.31675,77.54029 -82.12267,89.6132 -91.91193,101.12565 -91.91193,108.09102 0,8.74367 140.17846,147.35313 372.04043,367.87626 149.07207,141.78196 177.67777,169.40006 275.82227,266.29976 l 77.2675,76.2875 -1.4995,11.1305 c -4.5243,33.5834 -14.7076,56.636 -29.3891,66.5298 -8.7932,5.9257 -25.3526,10.0476 -48.3678,12.0395 l -15.6338,1.353 z"
     id="path16"
     transform="scale(0.75)" />
  <path
     style="fill:#ffff00;fill-opacity:0.14902;stroke-width:2.39243"
     d="m 1156.0577,1249.4479 c -14.613,-13.4874 -52.1452,-51.4373 -83.4049,-84.3333 C 883.20299,965.74872 482.56363,562.74034 470.91242,559.81607 c -10.78653,-2.70726 -19.67137,3.81093 -88.12322,64.64972 -36.43721,32.38476 -59.3902,51.39639 -62.05151,51.39639 -4.84087,0 -134.08714,-123.72616 -134.1127,-128.38475 -0.0148,-2.70113 143.49567,-144.34519 245.20907,-242.01999 l 50.24109,-48.24623 14.35459,1.37672 c 105.31486,10.10051 214.12271,24.83613 214.12271,28.9982 0,2.94664 -22.93604,29.53158 -66.38924,76.95116 -81.39868,88.82868 -91.51131,100.86502 -91.51131,108.91943 0,8.56285 177.72302,183.85872 404.25052,398.72976 92.85368,88.07568 244.45548,235.16762 294.90828,286.13512 l 25.689,25.9512 -2.2938,14.0936 c -5.6106,34.4731 -17.2223,57.5051 -32.6924,64.8462 -8.9928,4.2673 -39.7957,10.5309 -52.494,10.6742 -6.1047,0.069 -12.0225,-4.1895 -33.9618,-24.4389 z"
     id="path17"
     transform="scale(0.75)" />
  <path
     style="fill:#ffff00;fill-opacity:0.14902;stroke-width:2.39243"
     d="m 1170.8543,1262.4657 c -17.0599,-14.3744 -65.654,-63.7749 -187.54404,-190.6559 -100.899,-105.03056 -457.69457,-464.18755 -491.04689,-494.29691 -11.50236,-10.38395 -22.89118,-18.8799 -25.30849,-18.8799 -7.54009,0 -23.77392,12.50098 -79.253,61.02944 -29.53605,25.83566 -56.75675,49.14918 -60.49045,51.80782 l -6.78854,4.83386 -13.39553,-11.44418 C 288.39302,648.94013 186.60973,548.94677 186.60973,546.55996 c 0,-1.59379 95.83728,-95.4385 271.56243,-265.91634 l 23.94569,-23.23064 45.43485,4.62205 c 86.61927,8.81171 176.28984,21.13814 179.87841,24.72671 3.05966,3.05966 -5.06217,13.1976 -51.05589,63.72962 -89.18398,97.98393 -103.72332,115.19021 -103.72332,122.74932 0,8.70334 160.06266,166.68216 422.2413,416.74421 95.4966,91.0832 265.3378,255.96751 291.1626,282.66491 l 11.225,11.6043 -3.2411,17.9432 c -5.592,30.9578 -14.7349,49.6328 -28.816,58.8591 -7.1046,4.6551 -26.516,9.6356 -45.6602,11.7153 l -14.596,1.5856 z"
     id="path18"
     transform="scale(0.75)" />
  <path
     style="fill:#ffff00;fill-opacity:0.14902;stroke-width:2.39243"
     d="m 1165.4938,1257.4122 c -10.3349,-9.1069 -59.0536,-58.3611 -108.2639,-109.4538 C 826.68478,908.59464 481.68855,562.51354 470.93392,559.81879 c -10.84602,-2.71763 -14.84643,0.1826 -86.89579,62.99775 -27.66159,24.11634 -53.19269,45.94674 -56.73579,48.51198 l -6.44198,4.66409 -16.28612,-14.09123 c -8.95737,-7.75019 -39.13009,-36.37782 -67.05048,-63.61698 -46.05683,-44.93307 -50.49397,-49.95983 -47.84865,-54.2069 2.39704,-3.84847 144.85166,-143.49279 265.02585,-259.79751 27.02774,-26.15748 27.86459,-26.73772 37.0827,-25.71172 5.18701,0.57732 34.67094,3.76724 65.51985,7.0887 53.15607,5.72325 133.80069,16.48236 145.47353,19.40818 2.96064,0.74209 5.38298,2.49476 5.38298,3.89483 0,3.30032 -13.43138,18.82387 -78.83697,91.1172 -63.28785,69.95255 -76.67115,86.18865 -76.67115,93.01443 0,8.70117 156.76445,163.80598 399.53623,395.30638 80.81387,77.0619 291.59107,281.36241 313.93967,304.29301 l 11.297,11.5913 -4.4384,21.6635 c -7.2801,35.5337 -18.5771,53.0953 -38.2795,59.5067 -10.6696,3.4721 -37.8288,8.4632 -46.2509,8.4997 -2.2943,0.01 -12.6273,-7.433 -22.9622,-16.54 z"
     id="path19"
     transform="scale(0.75)" />
  <path
     style="fill:#ffff00;fill-opacity:0.14902;stroke-width:2.39243"
     d="m 1166.3108,1257.8253 c -10.5267,-9.1244 -59.5013,-58.4787 -108.8325,-109.6762 C 858.57739,941.72341 487.10622,567.96517 474.07691,561.15583 c -11.51607,-6.01852 -16.14844,-2.82826 -93.23463,64.20978 -27.83013,24.20247 -52.73045,45.49655 -55.33405,47.32018 -4.33874,3.03899 -6.28907,1.9401 -23.3694,-13.16718 -31.67076,-28.0123 -113.13666,-108.35135 -113.13666,-111.57173 0,-3.19429 127.80227,-130.3724 232.56845,-231.43264 58.62644,-56.55264 61.60904,-59.05065 69.25817,-58.00599 4.39636,0.60042 24.1423,2.74213 43.87987,4.75936 75.02857,7.66808 170.01561,20.78729 173.14194,23.91362 2.25434,2.25433 -13.19737,20.64015 -71.95934,85.62357 -69.91698,77.31947 -83.23936,93.35487 -83.23936,100.19051 0,8.55477 144.61628,152.05325 373.21947,370.33475 110.12033,105.14827 212.83043,204.48404 300.85253,290.96874 l 50.8433,49.9553 -3.3798,16.747 c -5.1404,25.4709 -13.1084,44.4502 -22.7141,54.1039 -8.8542,8.8984 -23.894,13.8383 -54.0608,17.7565 l -11.9622,1.5537 z"
     id="path20"
     transform="scale(0.75)" />
  <path
     style="fill:#ffff00;fill-opacity:0.14902;stroke-width:2.39243"
     d="m 1165.8048,1256.6252 c -10.7599,-9.5399 -44.1158,-42.668 -74.1244,-73.6182 C 794.54628,876.54939 481.75064,562.53629 470.9034,559.81379 c -10.89277,-2.7339 -13.65673,-0.68356 -102.41799,75.97514 -23.99633,20.72445 -45.45532,37.68082 -47.68664,37.68082 -4.37477,0 -118.15626,-107.18526 -127.06988,-119.70328 l -5.38916,-7.56837 34.42338,-34.62838 C 282.70217,451.27375 473.8926,265.70824 479.8543,262.04229 c 5.05803,-3.11026 10.64013,-3.02475 48.19237,0.73822 89.31888,8.95034 174.02214,20.85187 178.21036,25.04008 2.79919,2.7992 -6.43356,13.84941 -77.56393,92.83215 -64.73621,71.88271 -76.0412,85.61959 -76.0412,92.39895 0,8.44633 137.82744,145.22646 376.7397,373.87697 108.7724,104.10041 223.3357,214.89094 305.7337,295.66514 l 42.4977,41.6603 -4.6118,20.3357 c -7.7353,34.1084 -16.653,49.7831 -33.1875,58.3334 -6.1504,3.1805 -42.9923,11.0471 -51.7373,11.0471 -1.495,0 -11.5217,-7.8053 -22.2816,-17.3451 z"
     id="path21"
     transform="scale(0.75)" />
  <path
     style="fill:#ffff00;fill-opacity:0.14902;stroke-width:2.39243"
     d="m 1178.0339,1267.0561 c -11.0949,-8.2215 -91.8176,-89.7002 -258.61633,-261.0382 C 743.88623,825.70948 478.54066,561.73064 470.9034,559.81379 c -10.83425,-2.71921 -16.25596,1.30357 -106.00215,78.6511 -22.33884,19.25267 -41.90628,35.00486 -43.4832,35.00486 -6.05085,0 -132.41588,-120.4485 -132.41588,-126.21606 0,-2.59387 270.16814,-268.17145 286.82306,-281.9495 l 8.10467,-6.70473 42.13641,4.20448 c 79.63085,7.94575 176.65932,21.48525 180.33881,25.16474 2.19654,2.19654 -15.40684,23.04761 -81.84882,96.94926 -58.08956,64.61148 -71.9044,81.53074 -71.9044,88.06259 0,8.75303 134.09891,141.56674 419.84344,415.81969 128.05076,122.90108 229.63536,221.26278 288.79806,279.63558 l 16.0323,15.8183 -3.3301,15.6471 c -7.6991,36.1768 -17.4265,54.3295 -33.1812,61.9212 -7.2176,3.478 -44.991,12.1479 -52.9261,12.1479 -0.2881,0 -4.7226,-3.1114 -9.8544,-6.9142 z"
     id="path22"
     transform="scale(0.75)" />
  <path
     style="fill:#ffff00;fill-opacity:0.14902;stroke-width:2.39243"
     d="m 1178.0789,1267.0888 c -11.1459,-8.2584 -91.8232,-89.6896 -258.65401,-261.0709 C 744.71739,826.54504 478.47681,561.71461 470.82516,559.79418 c -10.53251,-2.6435 -12.93045,-0.91408 -88.32967,63.70478 -65.11099,55.8016 -59.49947,52.52205 -72.14226,42.16222 C 292.87014,651.33513 204.98047,566.92934 196.47636,556.29835 l -8.07662,-10.09659 16.45013,-16.68812 C 234.65314,499.27918 467.5449,272.23809 475.82523,265.34567 l 8.10467,-6.74621 42.13641,4.20571 c 47.78714,4.76971 122.55259,14.18134 154.58073,19.45894 11.84254,1.95142 22.33934,3.56683 23.32622,3.5898 3.94005,0.0917 1.31938,6.56257 -6.79941,16.7888 -4.70101,5.92127 -34.02183,39.1781 -65.1574,73.90406 -66.63336,74.3172 -79.36455,89.78654 -79.36455,96.43376 0,8.75303 134.09891,141.56674 419.84344,415.81969 128.15186,122.99808 230.11966,221.73198 288.79476,279.63558 l 16.029,15.8183 -3.0525,14.3546 c -6.4155,30.1694 -11.6281,42.4738 -22.9162,54.0939 -9.7776,10.0653 -12.6835,11.5675 -28.8174,14.8973 -34.3894,7.0975 -34.182,7.0999 -44.4541,-0.5111 z"
     id="path23"
     transform="scale(0.75)" />
  <path
     style="fill:#ffff00;fill-opacity:0.14902;stroke-width:2.39243"
     d="m 1178.0789,1267.0888 c -11.1543,-8.2647 -91.9701,-89.8379 -258.6469,-261.0709 C 746.04318,827.88932 478.41128,561.69817 470.78229,559.78341 c -10.48275,-2.63101 -12.94536,-0.85379 -88.2868,63.71555 -65.11099,55.8016 -59.49947,52.52205 -72.14226,42.16222 C 292.87234,651.33692 204.98097,566.92999 196.47845,556.30096 l -8.07453,-10.09401 15.25183,-15.51203 C 229.12257,504.79361 464.66943,275.18819 474.58076,266.60374 l 9.25261,-8.01395 42.18468,4.21054 c 47.82956,4.77397 122.58944,14.1843 154.62899,19.46378 11.84254,1.95142 22.33934,3.56683 23.32622,3.5898 3.94005,0.0917 1.31938,6.56257 -6.79941,16.7888 -4.70101,5.92127 -34.02183,39.1781 -65.1574,73.90406 -66.5579,74.23305 -79.36455,89.78814 -79.36455,96.39707 0,8.70706 134.83188,142.2357 416.28326,412.25965 216.32434,207.54111 308.51334,298.62361 307.42454,303.73451 -12.1942,57.2433 -22.4236,72.0766 -54.2874,78.7201 -33.7359,7.0339 -33.7318,7.0339 -43.9934,-0.5693 z"
     id="path24"
     transform="scale(0.75)" />
  <path
     style="fill:#ffff00;fill-opacity:0.14902;stroke-width:2.39243"
     d="m 1175.4973,1264.6585 c -13.8722,-11.1561 -91.0971,-89.1624 -256.04982,-258.6406 C 748.5665,830.44877 478.28125,561.66554 470.6981,559.76229 c -10.43644,-2.61938 -13.14024,-0.66649 -88.73785,64.0935 -28.81945,24.68792 -54.96766,45.53182 -58.10713,46.31977 -3.97968,0.99884 -8.0552,-0.36939 -13.45927,-4.51854 C 297.36023,655.65 205.07747,567.06653 196.47636,556.30606 l -8.07662,-10.1043 16.45013,-16.69925 c 24.91309,-25.29038 256.586,-251.06262 268.49711,-261.65854 l 10.41129,-9.2617 42.22222,4.2143 c 47.8626,4.77728 122.6181,14.18659 154.66655,19.46754 11.84254,1.95142 22.33934,3.56683 23.32622,3.5898 3.94005,0.0917 1.31938,6.56257 -6.79941,16.7888 -4.70101,5.92127 -34.02183,39.1781 -65.1574,73.90406 -66.46182,74.12588 -79.36455,89.79016 -79.36455,96.35079 0,8.79636 135.29335,142.82681 418.61815,414.71054 80.89245,77.62582 179.40085,172.7742 218.90755,211.4409 39.5068,38.6667 75.274,73.6561 79.4827,77.7541 l 7.6522,7.451 -3.339,15.7212 c -7.5353,35.4793 -19.5524,56.2487 -36.6878,63.4083 -6.2783,2.6233 -43.544,10.5867 -49.5415,10.5867 -0.3674,0 -5.8785,-4.1903 -12.2469,-9.3118 z"
     id="path25"
     transform="scale(0.75)" />
  <path
     style="fill:#ffff00;fill-opacity:0.14902;stroke-width:2.39243"
     d="M 1175.4909,1264.6534 C 1161.6248,1253.5021 1084.379,1175.4743 919.44748,1006.0179 748.5665,830.44877 478.28125,561.66554 470.6981,559.76229 c -10.43644,-2.61938 -13.14024,-0.66649 -88.73785,64.0935 -28.81945,24.68792 -54.96766,45.53182 -58.10713,46.31977 -3.97968,0.99884 -8.0552,-0.36939 -13.45927,-4.51854 C 297.36191,655.65129 205.07801,567.0672 196.47845,556.30867 l -8.07453,-10.10172 15.25183,-15.52849 C 223.53524,510.43839 454.3075,285.61277 470.89971,270.32098 l 12.74892,-11.7497 42.27703,4.21979 c 47.91083,4.78212 122.65996,14.18996 154.72138,19.47304 11.84254,1.95142 22.33934,3.56683 23.32622,3.5898 7.93558,0.18473 -4.81372,16.08483 -79.56879,99.23291 -58.37966,64.93413 -71.75257,81.35911 -71.75257,88.12852 0,6.56545 165.24886,171.51234 326.55972,325.963 155.54368,148.92878 242.59818,233.00846 326.96808,315.79536 l 70.9706,69.6388 -3.2903,15.6965 c -6.5897,31.4371 -18.0735,53.2043 -31.8192,60.3124 -7.2746,3.7619 -29.6618,9.6792 -45.018,11.8991 -9.0086,1.3022 -11.0643,0.5512 -21.5319,-7.8671 z"
     id="path26"
     transform="scale(0.75)" />
  <path
     style="fill:#ffff00;fill-opacity:0.14902;stroke-width:2.39243"
     d="m 1184.8586,1271.3736 c -8.0143,-3.0247 -55.6252,-50.205 -180.8641,-179.2282 C 874.63176,958.8739 547.0338,629.33322 501.91954,587.09315 c -16.71818,-15.65309 -32.41337,-28.46016 -34.8782,-28.46016 -7.05313,0 -22.61574,11.50583 -65.11268,48.13942 -52.15959,44.96309 -76.73304,64.3049 -81.69827,64.3049 -2.23955,0 -15.18741,-10.09391 -28.77303,-22.43089 -37.13768,-33.72443 -102.45519,-98.36979 -102.45519,-101.40086 0,-2.24664 238.17474,-236.22492 280.68068,-275.73528 l 13.92443,-12.94314 42.29773,4.22063 c 68.24124,6.80939 176.57597,21.41626 179.34033,24.18063 3.22258,3.22257 -7.24558,15.91458 -80.25302,97.30201 -58.84832,65.60308 -72.34042,82.19206 -72.34042,88.94493 0,6.56545 165.24886,171.51234 326.55972,325.963 155.54368,148.92878 242.59818,233.00846 326.96808,315.79536 l 70.9706,69.6388 -3.2903,15.6965 c -6.5897,31.4371 -18.0735,53.2043 -31.8192,60.3124 -14.3061,7.398 -48.856,13.8945 -57.1822,10.7522 z"
     id="path27"
     transform="scale(0.75)" />
  <path
     style="fill:#ffff00;fill-opacity:0.14902;stroke-width:2.39243"
     d="m 1181.2933,1268.5682 c -9.8365,-5.8834 -93.7397,-89.9955 -260.70526,-261.3541 C 741.73505,823.6552 478.34436,561.68138 470.72238,559.76836 c -10.32856,-2.59229 -10.02386,-2.81295 -94.29873,68.29505 -54.52086,46.00267 -52.22651,44.50678 -61.34906,39.99905 C 307.5,664.31965 211.08542,573.13878 195.94359,555.3983 l -7.86584,-9.21577 50.10518,-49.41644 c 27.55785,-27.17904 93.60034,-91.66485 146.76109,-143.3018 88.56464,-86.02601 97.33324,-93.88537 104.7472,-93.88537 21.30544,0 212.27175,24.10711 215.34988,27.18523 3.19961,3.19962 -10.60511,19.98317 -82.0836,99.7959 -57.69728,64.42468 -70.3056,79.96127 -70.3056,86.63411 0,7.03254 167.05565,173.2082 358.86488,356.97458 149.80572,143.52406 169.50772,162.58002 297.16482,287.41966 l 68.6876,67.1715 -4.6522,19.4781 c -5.5176,23.1011 -16.3877,45.7335 -25.3522,52.785 -7.2132,5.6738 -23.9587,10.9828 -44.5396,14.1207 -11.7392,1.7899 -14.857,1.4169 -21.5319,-2.5755 z"
     id="path28"
     transform="scale(0.75)" />
  <path
     style="fill:#ffff00;fill-opacity:0.14902;stroke-width:2.39243"
     d="m 1169.7975,1259.075 c -8.4968,-7.2126 -77.8173,-77.0595 -154.0455,-155.2154 C 858.1391,942.26068 547.48097,629.85324 501.91954,587.13368 c -16.71818,-15.67539 -32.41337,-28.50069 -34.8782,-28.50069 -7.15165,0 -22.44678,11.44704 -73.4862,54.99788 -26.31675,22.45554 -53.45975,44.71803 -60.31776,49.47223 -11.91007,8.25642 -12.72903,8.47368 -18.26643,4.84544 -9.50099,-6.2253 -57.82379,-51.44548 -93.67094,-87.6567 L 187.80595,546.45761 232.1778,502.90232 C 351.7494,385.53117 475.39873,265.75455 480.32625,262.52591 c 4.77537,-3.12894 9.38411,-3.22461 34.7291,-0.72091 82.11587,8.11179 190.71223,23.23952 190.71223,26.56667 0,3.60406 -20.38539,27.85751 -75.3376,89.63266 -67.56363,75.95244 -77.77808,88.44495 -77.77808,95.12448 0,7.08937 165.10136,171.35987 361.25731,359.4393 158.10299,151.5933 190.19489,182.66159 298.26939,288.75629 l 65.0073,63.8163 -4.6224,18.6962 c -5.8239,23.5554 -17.2041,47.0761 -25.6154,52.9417 -9.7053,6.768 -28.4923,12.4943 -46.049,14.0358 l -15.6528,1.3743 z"
     id="path29"
     transform="scale(0.75)" />
  <path
     style="fill:#ffff00;fill-opacity:0.14902;stroke-width:2.39243"
     d="m 1169.7975,1259.0686 c -8.4968,-7.2161 -78.9172,-78.1396 -156.4898,-157.6079 C 849.24454,933.38813 551.85649,634.25849 504.32577,589.49804 c -18.02942,-16.97856 -34.79783,-30.86505 -37.27065,-30.86505 -7.10655,0 -22.23517,11.32589 -73.49998,55.02503 -26.31675,22.43296 -53.45975,44.68009 -60.31776,49.43811 -11.9106,8.26347 -12.72878,8.48079 -18.26643,4.85241 -9.58411,-6.27976 -57.9948,-51.6142 -93.67094,-87.71864 l -33.49406,-33.89615 45.45622,-44.52321 C 371.73595,366.17892 475.48072,265.70082 480.32625,262.52591 c 4.77537,-3.12894 9.38411,-3.22461 34.7291,-0.72091 80.51998,7.95414 190.71223,23.22953 190.71223,26.43746 0,3.69681 -19.7373,27.22201 -76.20218,90.82652 -68.28997,76.92487 -76.9135,87.44392 -76.9135,93.81992 0,8.54809 145.78972,152.91957 422.26434,418.1565 98.36036,94.36237 131.93896,126.9565 237.26236,230.3062 l 65.0073,63.7891 -4.6224,18.6962 c -5.8239,23.5554 -17.2041,47.0761 -25.6154,52.9417 -9.7053,6.768 -28.4923,12.4943 -46.049,14.0358 l -15.6528,1.3743 z"
     id="path30"
     transform="scale(0.75)" />
  <path
     style="fill:#ffff00;fill-opacity:0.14902;stroke-width:2.39243"
     d="m 1170.8743,1260.0484 c -7.9831,-6.6706 -79.5296,-78.668 -158.9922,-159.9943 C 840.39591,924.54596 550.57293,632.99775 504.32577,589.47646 c -18.28426,-17.20651 -34.78506,-30.84347 -37.3208,-30.84347 -6.90601,0 -19.4309,9.39051 -73.39272,55.02594 -27.22856,23.02717 -54.74589,45.52476 -61.14962,49.99464 -11.11613,7.75921 -11.9067,7.95438 -17.46606,4.31174 -9.60697,-6.29473 -57.98144,-51.59152 -93.69656,-87.73541 l -33.49406,-33.89615 45.45622,-44.52321 C 371.73595,366.17892 475.48072,265.70082 480.32625,262.52591 c 4.77537,-3.12894 9.38411,-3.22461 34.7291,-0.72091 80.51998,7.95414 190.71223,23.22953 190.71223,26.43746 0,3.69681 -19.7373,27.22201 -76.20218,90.82652 -68.81016,77.51083 -76.9135,87.42494 -76.9135,94.10076 0,6.88195 153.45735,159.55834 354.08001,352.27806 168.11129,161.4891 201.31039,193.648 305.44669,295.8766 l 65.0073,63.8163 -4.6224,18.6962 c -5.8239,23.5554 -17.2041,47.0761 -25.6154,52.9417 -9.6927,6.7593 -28.4852,12.4937 -45.9776,14.0298 l -15.5814,1.3683 z"
     id="path31"
     transform="scale(0.75)" />
  <path
     style="fill:#ffff00;fill-opacity:0.14902;stroke-width:2.39243"
     d="m 1170.9137,1260.0813 c -7.9615,-6.6525 -80.0639,-79.1882 -160.2277,-161.1905 C 829.01405,913.0521 545.22302,627.63964 502.93431,588.23805 c -17.47588,-16.28278 -33.6248,-29.60045 -35.88649,-29.59482 -6.6635,0.0166 -20.93754,10.71869 -73.37782,55.0157 -27.26033,23.02717 -54.80364,45.52476 -61.20737,49.99464 -11.11613,7.75921 -11.9067,7.95438 -17.46606,4.31174 -9.60697,-6.29473 -57.98144,-51.59152 -93.69656,-87.73541 l -33.49406,-33.89615 45.45622,-44.52321 C 371.73595,366.17892 475.48072,265.70082 480.32625,262.52591 c 4.77537,-3.12894 9.38411,-3.22461 34.7291,-0.72091 82.11587,8.11179 190.71223,23.23952 190.71223,26.56667 0,3.41558 -19.44011,26.78023 -65.63188,78.88156 -80.63809,90.95455 -87.4838,99.28385 -87.4838,106.44337 0,6.16441 163.51212,168.56183 354.08001,351.66617 166.05039,159.54709 194.05179,186.68143 305.44669,295.98883 l 65.0073,63.7891 -4.6224,18.6962 c -5.8239,23.5554 -17.2041,47.0761 -25.6154,52.9417 -9.6927,6.7593 -28.4852,12.4937 -45.9776,14.0298 l -15.5814,1.3683 z"
     id="path32"
     transform="scale(0.75)" />
  <path
     style="fill:#ffff00;fill-opacity:0.14902;stroke-width:2.39243"
     d="m 1170.9137,1260.0813 c -7.9615,-6.6525 -80.0776,-79.1882 -160.2581,-161.1905 -188.6364,-192.92265 -464.33,-470.13978 -506.68324,-509.48329 -18.22079,-16.926 -34.92724,-30.77452 -37.12543,-30.77452 -5.78337,0 -19.24592,9.64066 -51.75989,37.06581 -64.36102,54.28776 -75.56607,63.48375 -84.79348,69.59017 -9.05772,5.99412 -9.99077,6.15312 -15.38129,2.62112 -9.53174,-6.24544 -58.02577,-51.66647 -93.61226,-87.68019 l -33.49406,-33.89615 45.45622,-44.52321 C 371.73595,366.17892 475.48072,265.70082 480.32625,262.52591 c 4.77537,-3.12894 9.38411,-3.22461 34.7291,-0.72091 82.11587,8.11179 190.71223,23.23952 190.71223,26.56667 0,3.38129 -19.28216,26.57815 -65.55717,78.86672 -83.41718,94.25741 -87.55851,99.29133 -87.55851,106.42991 0,6.12922 163.92867,168.94232 354.08001,351.67048 166.02419,159.54283 194.00259,186.65712 305.44669,296.01282 l 65.0073,63.7891 -4.6224,18.6962 c -5.8239,23.5554 -17.2041,47.0761 -25.6154,52.9417 -9.6927,6.7593 -28.4852,12.4937 -45.9776,14.0298 l -15.5814,1.3683 z"
     id="path33"
     transform="scale(0.75)" />
  <path
     style="fill:#ffff00;fill-opacity:0.14902;stroke-width:2.39243"
     d="m 1170.9137,1260.0813 c -7.9615,-6.6525 -80.0796,-79.1746 -160.2624,-161.1603 C 820.04636,904.03047 556.6377,639.09616 508.8207,594.18386 c -21.00156,-19.72579 -39.84828,-35.55087 -42.33897,-35.55087 -5.09524,0 -25.5848,15.02658 -57.96422,42.50967 -50.33068,42.71978 -69.08165,58.09623 -78.22395,64.14631 -9.05772,5.99412 -9.99077,6.15312 -15.38129,2.62112 -9.53174,-6.24544 -58.02577,-51.66647 -93.61226,-87.68019 l -33.49406,-33.89615 45.45622,-44.52321 C 371.73595,366.17892 475.48072,265.70082 480.32625,262.52591 c 4.77537,-3.12894 9.38411,-3.22461 34.7291,-0.72091 80.51998,7.95414 190.71223,23.22953 190.71223,26.43746 0,3.62747 -18.81739,26.07884 -75.78929,90.42551 -74.28158,83.89704 -78.85008,89.78654 -75.44486,97.2602 5.76289,12.64817 123.81704,129.46271 380.90767,376.90803 143.5165,138.13221 180.4603,173.9747 276.7375,268.4882 l 65.0073,63.8163 -4.6224,18.6962 c -5.8239,23.5554 -17.2041,47.0761 -25.6154,52.9417 -9.6927,6.7593 -28.4852,12.4937 -45.9776,14.0298 l -15.5814,1.3683 z"
     id="path34"
     transform="scale(0.75)" />
  <path
     style="fill:#ffff00;fill-opacity:0.14902;stroke-width:2.39243"
     d="m 1170.9856,1260.1414 c -7.9219,-6.6194 -81.1166,-80.2005 -162.6548,-163.5136 C 810.42737,894.41653 566.26623,648.77762 513.65547,598.95846 c -24.32774,-23.03687 -44.53099,-40.32547 -47.12386,-40.32547 -5.1416,0 -25.54563,14.95098 -58.0141,42.50967 -50.33068,42.71978 -69.08165,58.09623 -78.22395,64.14631 -9.05772,5.99412 -9.99077,6.15312 -15.38129,2.62112 -9.53174,-6.24544 -58.02577,-51.66647 -93.61226,-87.68019 l -33.49406,-33.89615 45.45622,-44.52321 C 371.73595,366.17892 475.48072,265.70082 480.32625,262.52591 c 4.77537,-3.12894 9.38411,-3.22461 34.7291,-0.72091 80.51998,7.95414 190.71223,23.22953 190.71223,26.43746 0,3.62747 -18.81739,26.07884 -75.78929,90.42551 -71.95722,81.2718 -78.31219,89.35495 -75.99375,96.65967 2.4638,7.76275 150.87631,155.51661 314.46845,313.07286 207.15951,199.51612 274.17131,264.4029 344.92181,333.984 l 63.8111,62.7562 -4.6224,18.6962 c -5.8239,23.5554 -17.2041,47.0761 -25.6154,52.9417 -9.6927,6.7593 -28.4852,12.4937 -45.9776,14.0298 l -15.5814,1.3683 z"
     id="path35"
     transform="scale(0.75)" />
</svg>
