<svg width="200" height="200" viewBox="0 0 200 200" fill="none" xmlns="http://www.w3.org/2000/svg">
  <g id="sickle">
    <path
      d="M118.75 150C118.75 152.5 116.25 154.5 114.25 155.5C112.25 156.5 110.75 155.5 110.75 153.5L108.75 143.5H98.75C96.75 143.5 95.25 142 95.25 139.5C95.25 137.5 97.75 135.5 99.75 134.5L104.75 123.5H12.25V112.5H104.75L99.75 101.5C97.75 101.5 96.25 100 96.25 97.5C96.25 95.5 101.25 93.5 104.25 92.5L104.25 88.5H12.25V77.5H104.75C106.75 77.5 108.25 76 108.25 73.5C108.25 71.5 106.75 69.5 104.75 68.5L104.75 64.5C102.75 63.5 101.25 62.5 100.25 62.5H125.75C127.75 62.5 129.25 64 129.25 66.5C129.25 69.5 126.75 71.5 124.75 72.5H114.75L123.75 95.5H129.25C131.25 95.5 132.75 97 132.75 99.5C132.75 102.5 130.25 104.5 128.25 105.5H123.75L124.75 107.5H127.25C129.25 107.5 130.75 109 130.75 111.5C130.75 114.5 128.25 116.5 126.25 117.5H122.75L127.25 129.5C129.25 129.5 130.75 131 130.75 133.5C130.75 136.5 128.25 138.5 126.25 139.5H122.75"
      fill="white"
      fill-opacity="0.5"
    />
  </g>
  <g id="hammer">
    <path
      d="M125.75 62.5H100.25C101.25 62.5 102.75 63.5 104.75 64.5V68.5C106.75 69.5 108.25 71.5 108.25 73.5C108.25 76 106.75 77.5 104.75 77.5H12.25V88.5H104.25C101.25 93.5 96.25 95.5 96.25 97.5C96.25 100 97.75 101.5 99.75 101.5H104.75V112.5H12.25V123.5H104.75C97.75 135.5 95.25 137.5 95.25 139.5C95.25 142 96.75 143.5 98.75 143.5H108.75L110.75 153.5C110.75 155.5 112.25 156.5 114.25 155.5C116.25 154.5 118.75 152.5 118.75 150"
      fill="white"
      fill-opacity="0.5"
    />
  </g>
</svg>
